<svg xmlns="http://www.w3.org/2000/svg" width="8" height="8" viewBox="0 0 8 8">
  <g id="Tracé_8" data-name="Tracé 8" fill="none">
    <path d="M4,0A4,4,0,1,1,0,4,4,4,0,0,1,4,0Z" stroke="none"/>
    <path d="M 4 1 C 2.345789909362793 1 1 2.345789909362793 1 4 C 1 5.654210090637207 2.345789909362793 7 4 7 C 5.654210090637207 7 7 5.654210090637207 7 4 C 7 2.345789909362793 5.654210090637207 1 4 1 M 4 0 C 6.209139823913574 0 8 1.790860176086426 8 4 C 8 6.209139823913574 6.209139823913574 8 4 8 C 1.790860176086426 8 0 6.209139823913574 0 4 C 0 1.790860176086426 1.790860176086426 0 4 0 Z" stroke="none" fill="#707070"/>
  </g>
</svg>
